# xmcd
#
# Track frame offsets:
#	150
#	15637
#	33787
#	48872
#	77725
#	107300
#	135250
#	151055
#	168752
#	190372
#	212375
#	236625
#	252765
#	277752
#	314865
#
# Disc length: 4493
#
# Revision: 5
# Processed by: cddbd v1.5.1PL0 Copyright (c) Steve Scherf et al.
# Submitted via: EasyCDDAExtractor 7.5.0.1
# Normalized: r4:DSETVAR1
#
DISCID=ad118b0f
DTITLE=Various Artist - Fish Tree Water Blues
DYEAR=1999
DGENRE=Blues
TTITLE0=J.J. Cale - Stone River
TTITLE1=Ani Difranco - Fuel
TTITLE2=Keb' Mo' - Victims Of Comfort
TTITLE3=Branford Marsalis - The Road You Choose
TTITLE4=John Lee Hooker and John Hammond - Highway 13
TTITLE5=Tracy Nelson - Mother Earth
TTITLE6=Roomful Of Blues - Blue Blue World
TTITLE7=Mavis Staples - I'll Fly Away
TTITLE8=Loudon Wainwright III - Hard Day On The Planet
TTITLE9=Alvin Youngblood Hart - Rollin' River
TTITLE10=The Robert Cray Band - The Forecast (Calls For Pain)
TTITLE11=Ruth Brown - Ice Water In Your Veins
TTITLE12=Ratdog With Charlie Musselwhite - Take Me To The River
TTITLE13=Etta James - Take It To The Limit
TTITLE14=Various Artist - Data Track
EXTD=Bullseye Blues and Jazz  BB11661-9618-2\n©1999 Earthjustice Legal Defense Fund\nhttp://www.rounder.com
EXTT0=
EXTT1=
EXTT2=
EXTT3=
EXTT4=
EXTT5=
EXTT6=
EXTT7=
EXTT8=
EXTT9=
EXTT10=
EXTT11=
EXTT12=
EXTT13=
EXTT14=
PLAYORDER=
